<?xml version="1.0" encoding="UTF-8" standalone="no"?><svg id="e66276b1-e3f6-4581-bcae-e36a65820243" data-name="圖層 1" xmlns="http://www.w3.org/2000/svg" viewBox="0 0 80 53"><defs><style>.b7371e02-f109-4260-8859-596e4dbce5af{fill:#0a0000;}</style></defs><path class="b7371e02-f109-4260-8859-596e4dbce5af" d="M10.59,24.1a2.79,2.79,0,0,1-2.83,3.1H5.14V21H7.76c1.93,0,2.83,1.46,2.83,3.13m15.47,0a2.81,2.81,0,0,1-2.84,3.1H20.58V21h2.64a2.82,2.82,0,0,1,2.84,3.13m14.87,4.18H36.58l2.05-4.1Zm18.72.58a2.85,2.85,0,0,1-3,3.19H54.87V21H56.6a2.85,2.85,0,0,1,3,3.19Zm12.91-.58H68.21l2.05-4.1ZM13.87,24.1c0-2-1.43-4-4.44-4H0v.22a1.54,1.54,0,0,1,1.6,1.55v9.26A1.53,1.53,0,0,1,0,32.68v.22H6.73v-.22a1.53,1.53,0,0,1-1.59-1.55V28.05H9.43c3,0,4.44-2,4.44-3.95M31.5,32.91v-.19l-4.77-3.91a6.38,6.38,0,0,1-1.55.21A4.67,4.67,0,0,1,22,28H24.9c3,0,4.41-2,4.41-4s-1.41-4-4.41-4H15.46v.21a1.53,1.53,0,0,1,1.6,1.54v9.27a1.53,1.53,0,0,1-1.6,1.55v.22h6.72v-.22a1.54,1.54,0,0,1-1.6-1.55V28l5.86,4.86H31.5Zm16.87,0v-.22c-.84,0-1.28-.69-1.65-1.38L40.44,20.1h-5.1v.22a1.88,1.88,0,0,1,1.73,1.14l1.09,1.83-3.89,7.93c-.47.94-.94,1.48-1.72,1.48v.21h3.24V32.7a.68.68,0,0,1-.77-.78,2.19,2.19,0,0,1,.22-.87l.92-1.92H41.4l1.21,2.19a1.67,1.67,0,0,1,.22.72c0,.44-.29.64-.94.64v.22h6.48Zm15.56-6.4c0-4.23-3.45-6.41-6.78-6.41H49.73v.22a1.53,1.53,0,0,1,1.6,1.54v9.27a1.52,1.52,0,0,1-1.6,1.54v.22h7.42c3.31,0,6.78-2.13,6.78-6.38M80,32.91v-.22c-.84,0-1.28-.69-1.65-1.38L72.07,20.1H67v.22a1.88,1.88,0,0,1,1.73,1.14l1.09,1.83L65.9,31.21c-.47.94-.94,1.48-1.72,1.48v.22h3.24v-.22a.67.67,0,0,1-.77-.77,2.2,2.2,0,0,1,.22-.88l.92-1.91H73l1.21,2.18a1.67,1.67,0,0,1,.22.73c0,.43-.29.63-.94.63v.22H80Z"/></svg>